<svg width="107" height="32" viewBox="0 0 106.971 32" fill="none" xmlns="http://www.w3.org/2000/svg">
  <!-- A -->
  <g transform="translate(0, 0)">
    <path d="M21.7331 31.9994L15.399 5.65589C15.199 4.85617 14.9372 4.34233 14.6027 4.08541C14.2645 3.82487 13.7009 3.69822 12.8682 3.69822C12.0356 3.69822 11.472 3.82487 11.1338 4.08541C10.7993 4.34595 10.5375 4.85979 10.3375 5.65589L4.00701 31.9994H0L6.55593 4.71867C6.9159 3.31103 7.68676 2.15669 8.84305 1.29908C10.003 0.437852 11.3556 0 12.8682 0C14.3809 0 15.7335 0.437852 16.8934 1.29908C18.0497 2.16031 18.8169 3.31103 19.1805 4.7259L25.7365 31.9994H21.7295H21.7331Z" fill="currentColor"/>
  </g>
  <!-- l -->
  <g transform="translate(30.337, 0)">
    <path d="M3.89429 0H0V31.9994H3.89429V0Z" fill="currentColor"/>
  </g>
  <!-- u -->
  <g transform="translate(39.847, 8.845)">
    <path d="M8.07946 23.1555C5.49782 23.1555 3.4834 22.4535 2.0944 21.0712C0.705406 19.6889 0 17.6841 0 15.1149V0H3.89429V14.7169C3.89429 16.0666 3.9961 17.0292 4.19972 17.6588C4.42516 18.35 4.86149 18.8349 5.49418 19.0954C6.07596 19.3379 6.96681 19.4536 8.21036 19.4536H17.5952V0H21.4895V23.1555H8.07946Z" fill="currentColor"/>
  </g>
  <!-- r -->
  <g transform="translate(66.951, 8.845)">
    <path d="M0 23.1555V8.04055C0 5.47496 0.745401 3.47387 2.21803 2.09156C3.69793 0.705629 5.81779 0 8.52307 0H12.9155V3.69822H8.214C6.97044 3.69822 6.07959 3.81763 5.49781 4.05646C4.86513 4.32062 4.42879 4.8019 4.20335 5.49305C3.9961 6.12269 3.89792 7.08524 3.89792 8.43498V23.1519H0.00363412L0 23.1555Z" fill="currentColor"/>
  </g>
  <!-- a -->
  <g transform="translate(85.481, 8.845)">
    <path d="M5.67962 23.1555C4.65423 23.1555 3.70157 22.8986 2.84344 22.3883C1.98168 21.8781 1.28355 21.1833 0.770856 20.3257C0.258163 19.4754 0 18.5237 0 17.5032C0 16.3453 0.338157 15.2705 1.00357 14.3044C1.66898 13.3382 2.55256 12.6398 3.63249 12.2273L17.5407 6.91516L17.5116 6.63653C17.4606 6.16973 17.3879 5.79701 17.2898 5.49667C17.0643 4.80551 16.628 4.32062 15.9953 4.05646C15.4135 3.81402 14.5227 3.69822 13.2791 3.69822H0.447241V0H12.97C15.6753 0 17.7952 0.70201 19.2751 2.09156C20.7477 3.47387 21.4931 5.47496 21.4931 8.04055V18.5635C21.4931 19.8336 21.0531 20.8902 20.155 21.8021C19.2533 22.7104 18.1842 23.1519 16.8825 23.1519H5.68689L5.67962 23.1555ZM5.06148 15.8387C4.5597 16.016 4.25063 16.2222 4.10154 16.4792C3.96337 16.7144 3.89792 17.0835 3.89792 17.6335C3.89792 18.3681 4.01791 18.8312 4.27244 19.0846C4.52697 19.3379 4.97422 19.4573 5.68326 19.4573H16.8789C17.0098 19.4573 17.1989 19.4211 17.3807 19.2402C17.5225 19.099 17.5988 18.9253 17.5988 18.7408V11.0368L5.06148 15.8387Z" fill="currentColor"/>
  </g>
</svg>
